<mxfile host="app.diagrams.net" agent="Mozilla/5.0 (Macintosh; Intel Mac OS X 10_15_7) AppleWebKit/537.36 (KHTML, like Gecko) Chrome/131.0.0.0 Safari/537.36" version="24.8.9">
  <diagram name="Page-1" id="dJk9Sj8WBNHRXTNoB35j">
    <mxGraphModel dx="977" dy="619" grid="1" gridSize="10" guides="1" tooltips="1" connect="1" arrows="1" fold="1" page="1" pageScale="1" pageWidth="850" pageHeight="1100" background="#FFFFFF" math="0" shadow="0">
      <root>
        <mxCell id="0" />
        <mxCell id="1" parent="0" />
        <mxCell id="fq-Lssg5EnkaD2OzTq8E-11" value="«Enum»&lt;br&gt;&lt;b&gt;Days&lt;/b&gt;" style="html=1;whiteSpace=wrap;labelBackgroundColor=none;fillColor=#5D7F99;strokeColor=#D0CEE2;fontColor=#1A1A1A;" vertex="1" parent="1">
          <mxGeometry x="440" y="40" width="110" height="50" as="geometry" />
        </mxCell>
        <mxCell id="fq-Lssg5EnkaD2OzTq8E-12" value="WeeklyRoutine" style="html=1;whiteSpace=wrap;labelBackgroundColor=none;fillColor=#5D7F99;strokeColor=#D0CEE2;fontColor=#1A1A1A;" vertex="1" parent="1">
          <mxGeometry x="240" y="40" width="110" height="50" as="geometry" />
        </mxCell>
        <mxCell id="fq-Lssg5EnkaD2OzTq8E-13" value="Workout" style="html=1;whiteSpace=wrap;labelBackgroundColor=none;fillColor=#5D7F99;strokeColor=#D0CEE2;fontColor=#1A1A1A;" vertex="1" parent="1">
          <mxGeometry x="240" y="160" width="110" height="50" as="geometry" />
        </mxCell>
        <mxCell id="fq-Lssg5EnkaD2OzTq8E-16" value="WorkoutLogger" style="html=1;whiteSpace=wrap;labelBackgroundColor=none;fillColor=#5D7F99;strokeColor=#D0CEE2;fontColor=#1A1A1A;" vertex="1" parent="1">
          <mxGeometry x="40" y="160" width="110" height="50" as="geometry" />
        </mxCell>
        <mxCell id="fq-Lssg5EnkaD2OzTq8E-18" value="Set" style="html=1;whiteSpace=wrap;labelBackgroundColor=none;fillColor=#5D7F99;strokeColor=#D0CEE2;fontColor=#1A1A1A;" vertex="1" parent="1">
          <mxGeometry x="640" y="160" width="110" height="50" as="geometry" />
        </mxCell>
        <mxCell id="fq-Lssg5EnkaD2OzTq8E-19" value="Exercise" style="html=1;whiteSpace=wrap;labelBackgroundColor=none;fillColor=#5D7F99;strokeColor=#D0CEE2;fontColor=#1A1A1A;" vertex="1" parent="1">
          <mxGeometry x="440" y="160" width="110" height="50" as="geometry" />
        </mxCell>
        <mxCell id="fq-Lssg5EnkaD2OzTq8E-20" value="JsonReader" style="html=1;whiteSpace=wrap;labelBackgroundColor=none;fillColor=#5D7F99;strokeColor=#D0CEE2;fontColor=#1A1A1A;" vertex="1" parent="1">
          <mxGeometry x="200" y="400" width="110" height="50" as="geometry" />
        </mxCell>
        <mxCell id="fq-Lssg5EnkaD2OzTq8E-21" value="JsonWriter" style="html=1;whiteSpace=wrap;labelBackgroundColor=none;fillColor=#5D7F99;strokeColor=#D0CEE2;fontColor=#1A1A1A;" vertex="1" parent="1">
          <mxGeometry x="360" y="400" width="110" height="50" as="geometry" />
        </mxCell>
        <mxCell id="fq-Lssg5EnkaD2OzTq8E-22" value="DataPersistence" style="html=1;whiteSpace=wrap;labelBackgroundColor=none;fillColor=#5D7F99;strokeColor=#D0CEE2;fontColor=#1A1A1A;" vertex="1" parent="1">
          <mxGeometry x="40" y="400" width="110" height="50" as="geometry" />
        </mxCell>
        <mxCell id="fq-Lssg5EnkaD2OzTq8E-24" value="SavedRoutines" style="html=1;whiteSpace=wrap;labelBackgroundColor=none;fillColor=#5D7F99;strokeColor=#D0CEE2;fontColor=#1A1A1A;" vertex="1" parent="1">
          <mxGeometry x="40" y="40" width="110" height="50" as="geometry" />
        </mxCell>
        <mxCell id="fq-Lssg5EnkaD2OzTq8E-25" value="EventLog" style="html=1;whiteSpace=wrap;labelBackgroundColor=none;fillColor=#5D7F99;strokeColor=#D0CEE2;fontColor=#1A1A1A;" vertex="1" parent="1">
          <mxGeometry x="520" y="400" width="110" height="50" as="geometry" />
        </mxCell>
        <mxCell id="fq-Lssg5EnkaD2OzTq8E-27" value="Event" style="html=1;whiteSpace=wrap;labelBackgroundColor=none;fillColor=#5D7F99;strokeColor=#D0CEE2;fontColor=#1A1A1A;" vertex="1" parent="1">
          <mxGeometry x="680" y="400" width="110" height="50" as="geometry" />
        </mxCell>
        <mxCell id="fq-Lssg5EnkaD2OzTq8E-28" value="ConsolePrinter" style="html=1;whiteSpace=wrap;labelBackgroundColor=none;fillColor=#5D7F99;strokeColor=#D0CEE2;fontColor=#1A1A1A;" vertex="1" parent="1">
          <mxGeometry x="670" y="840" width="110" height="50" as="geometry" />
        </mxCell>
        <mxCell id="fq-Lssg5EnkaD2OzTq8E-30" value="Main" style="html=1;whiteSpace=wrap;labelBackgroundColor=none;fillColor=#5D7F99;strokeColor=#D0CEE2;fontColor=#1A1A1A;" vertex="1" parent="1">
          <mxGeometry x="40" y="1000" width="110" height="50" as="geometry" />
        </mxCell>
        <mxCell id="fq-Lssg5EnkaD2OzTq8E-31" value="FitnessLoggerApp" style="html=1;whiteSpace=wrap;labelBackgroundColor=none;fillColor=#5D7F99;strokeColor=#D0CEE2;fontColor=#1A1A1A;" vertex="1" parent="1">
          <mxGeometry x="40" y="910" width="110" height="50" as="geometry" />
        </mxCell>
        <mxCell id="fq-Lssg5EnkaD2OzTq8E-32" value="FitnessLoggerAppGui" style="html=1;whiteSpace=wrap;labelBackgroundColor=none;fillColor=#5D7F99;strokeColor=#D0CEE2;fontColor=#1A1A1A;" vertex="1" parent="1">
          <mxGeometry x="40" y="560" width="135" height="50" as="geometry" />
        </mxCell>
        <mxCell id="fq-Lssg5EnkaD2OzTq8E-36" value="«interface»&lt;br&gt;&lt;b&gt;LogPrinter&lt;/b&gt;" style="html=1;whiteSpace=wrap;labelBackgroundColor=none;fillColor=#5D7F99;strokeColor=#D0CEE2;fontColor=#1A1A1A;" vertex="1" parent="1">
          <mxGeometry x="670" y="730" width="110" height="50" as="geometry" />
        </mxCell>
        <mxCell id="fq-Lssg5EnkaD2OzTq8E-37" value="«interface»&lt;br&gt;&lt;b&gt;Writeable&lt;/b&gt;" style="html=1;whiteSpace=wrap;labelBackgroundColor=none;fillColor=#5D7F99;strokeColor=#D0CEE2;fontColor=#1A1A1A;" vertex="1" parent="1">
          <mxGeometry x="40" y="280" width="110" height="50" as="geometry" />
        </mxCell>
        <mxCell id="fq-Lssg5EnkaD2OzTq8E-38" value="ProgressBar" style="html=1;whiteSpace=wrap;labelBackgroundColor=none;fillColor=#5D7F99;strokeColor=#D0CEE2;fontColor=#1A1A1A;" vertex="1" parent="1">
          <mxGeometry x="670" y="480" width="110" height="50" as="geometry" />
        </mxCell>
        <mxCell id="fq-Lssg5EnkaD2OzTq8E-39" value="MenuBar" style="html=1;whiteSpace=wrap;labelBackgroundColor=none;fillColor=#5D7F99;strokeColor=#D0CEE2;fontColor=#1A1A1A;" vertex="1" parent="1">
          <mxGeometry x="200" y="480" width="110" height="50" as="geometry" />
        </mxCell>
        <mxCell id="fq-Lssg5EnkaD2OzTq8E-40" value="SpashScreen" style="html=1;whiteSpace=wrap;labelBackgroundColor=none;fillColor=#5D7F99;strokeColor=#D0CEE2;fontColor=#1A1A1A;" vertex="1" parent="1">
          <mxGeometry x="670" y="570" width="110" height="50" as="geometry" />
        </mxCell>
        <mxCell id="fq-Lssg5EnkaD2OzTq8E-41" value="TabbedPanes" style="html=1;whiteSpace=wrap;labelBackgroundColor=none;fillColor=#5D7F99;strokeColor=#D0CEE2;fontColor=#1A1A1A;" vertex="1" parent="1">
          <mxGeometry x="200" y="680" width="110" height="50" as="geometry" />
        </mxCell>
        <mxCell id="fq-Lssg5EnkaD2OzTq8E-42" value="AddWorkoutTab" style="html=1;whiteSpace=wrap;labelBackgroundColor=none;fillColor=#5D7F99;strokeColor=#D0CEE2;fontColor=#1A1A1A;" vertex="1" parent="1">
          <mxGeometry x="360" y="580" width="110" height="50" as="geometry" />
        </mxCell>
        <mxCell id="fq-Lssg5EnkaD2OzTq8E-43" value="DisplayWorkoutTab" style="html=1;whiteSpace=wrap;labelBackgroundColor=none;fillColor=#5D7F99;strokeColor=#D0CEE2;fontColor=#1A1A1A;" vertex="1" parent="1">
          <mxGeometry x="360" y="680" width="110" height="50" as="geometry" />
        </mxCell>
        <mxCell id="fq-Lssg5EnkaD2OzTq8E-44" value="FilterWorkoutTab" style="html=1;whiteSpace=wrap;labelBackgroundColor=none;fillColor=#5D7F99;strokeColor=#D0CEE2;fontColor=#1A1A1A;" vertex="1" parent="1">
          <mxGeometry x="360" y="780" width="110" height="50" as="geometry" />
        </mxCell>
        <mxCell id="fq-Lssg5EnkaD2OzTq8E-45" value="" style="endArrow=open;endFill=1;endSize=12;html=1;rounded=0;labelBackgroundColor=none;strokeColor=#736CA8;fontColor=default;" edge="1" parent="1">
          <mxGeometry width="160" relative="1" as="geometry">
            <mxPoint x="350" y="60" as="sourcePoint" />
            <mxPoint x="440" y="60" as="targetPoint" />
          </mxGeometry>
        </mxCell>
        <mxCell id="fq-Lssg5EnkaD2OzTq8E-46" value="0..7" style="edgeLabel;html=1;align=center;verticalAlign=middle;resizable=0;points=[];labelBackgroundColor=none;fontColor=#1A1A1A;" vertex="1" connectable="0" parent="fq-Lssg5EnkaD2OzTq8E-45">
          <mxGeometry x="0.6889" y="2" relative="1" as="geometry">
            <mxPoint x="-1" y="-18" as="offset" />
          </mxGeometry>
        </mxCell>
        <mxCell id="fq-Lssg5EnkaD2OzTq8E-49" value="" style="endArrow=open;endFill=1;endSize=12;html=1;rounded=0;labelBackgroundColor=none;strokeColor=#736CA8;fontColor=default;" edge="1" parent="1" source="fq-Lssg5EnkaD2OzTq8E-24">
          <mxGeometry width="160" relative="1" as="geometry">
            <mxPoint x="150" y="65" as="sourcePoint" />
            <mxPoint x="240" y="65" as="targetPoint" />
          </mxGeometry>
        </mxCell>
        <mxCell id="fq-Lssg5EnkaD2OzTq8E-50" value="0..*" style="edgeLabel;html=1;align=center;verticalAlign=middle;resizable=0;points=[];labelBackgroundColor=none;fontColor=#1A1A1A;" vertex="1" connectable="0" parent="fq-Lssg5EnkaD2OzTq8E-49">
          <mxGeometry x="0.7333" y="2" relative="1" as="geometry">
            <mxPoint x="2" y="-13" as="offset" />
          </mxGeometry>
        </mxCell>
        <mxCell id="fq-Lssg5EnkaD2OzTq8E-57" value="" style="endArrow=block;dashed=1;endFill=0;endSize=12;html=1;rounded=0;entryX=1;entryY=1;entryDx=0;entryDy=0;labelBackgroundColor=none;strokeColor=#736CA8;fontColor=default;" edge="1" parent="1" source="fq-Lssg5EnkaD2OzTq8E-18" target="fq-Lssg5EnkaD2OzTq8E-37">
          <mxGeometry width="160" relative="1" as="geometry">
            <mxPoint x="670" y="184.5" as="sourcePoint" />
            <mxPoint x="830" y="184.5" as="targetPoint" />
            <Array as="points">
              <mxPoint x="695" y="330" />
              <mxPoint x="170" y="330" />
            </Array>
          </mxGeometry>
        </mxCell>
        <mxCell id="fq-Lssg5EnkaD2OzTq8E-58" value="" style="endArrow=block;dashed=1;endFill=0;endSize=12;html=1;rounded=0;entryX=1;entryY=0.5;entryDx=0;entryDy=0;labelBackgroundColor=none;strokeColor=#736CA8;fontColor=default;" edge="1" parent="1" source="fq-Lssg5EnkaD2OzTq8E-19" target="fq-Lssg5EnkaD2OzTq8E-37">
          <mxGeometry width="160" relative="1" as="geometry">
            <mxPoint x="495" y="210" as="sourcePoint" />
            <mxPoint x="495" y="370" as="targetPoint" />
            <Array as="points">
              <mxPoint x="495" y="305" />
            </Array>
          </mxGeometry>
        </mxCell>
        <mxCell id="fq-Lssg5EnkaD2OzTq8E-59" value="" style="endArrow=block;dashed=1;endFill=0;endSize=12;html=1;rounded=0;entryX=1;entryY=0;entryDx=0;entryDy=0;labelBackgroundColor=none;strokeColor=#736CA8;fontColor=default;" edge="1" parent="1" target="fq-Lssg5EnkaD2OzTq8E-37">
          <mxGeometry width="160" relative="1" as="geometry">
            <mxPoint x="290" y="210" as="sourcePoint" />
            <mxPoint x="450" y="210" as="targetPoint" />
            <Array as="points">
              <mxPoint x="290" y="280" />
            </Array>
          </mxGeometry>
        </mxCell>
        <mxCell id="fq-Lssg5EnkaD2OzTq8E-60" value="" style="endArrow=block;dashed=1;endFill=0;endSize=12;html=1;rounded=0;exitX=1;exitY=0.5;exitDx=0;exitDy=0;labelBackgroundColor=none;strokeColor=#736CA8;fontColor=default;" edge="1" parent="1" source="fq-Lssg5EnkaD2OzTq8E-11">
          <mxGeometry width="160" relative="1" as="geometry">
            <mxPoint x="550" y="80" as="sourcePoint" />
            <mxPoint x="150" y="330" as="targetPoint" />
            <Array as="points">
              <mxPoint x="770" y="65" />
              <mxPoint x="770" y="210" />
              <mxPoint x="770" y="350" />
              <mxPoint x="630" y="350" />
              <mxPoint x="450" y="350" />
              <mxPoint x="150" y="350" />
            </Array>
          </mxGeometry>
        </mxCell>
        <mxCell id="fq-Lssg5EnkaD2OzTq8E-64" value="" style="endArrow=block;dashed=1;endFill=0;endSize=12;html=1;rounded=0;entryX=0.5;entryY=0;entryDx=0;entryDy=0;exitX=0.5;exitY=1;exitDx=0;exitDy=0;labelBackgroundColor=none;strokeColor=#736CA8;fontColor=default;" edge="1" parent="1" source="fq-Lssg5EnkaD2OzTq8E-16" target="fq-Lssg5EnkaD2OzTq8E-37">
          <mxGeometry width="160" relative="1" as="geometry">
            <mxPoint x="90" y="210" as="sourcePoint" />
            <mxPoint x="250" y="210" as="targetPoint" />
          </mxGeometry>
        </mxCell>
        <mxCell id="fq-Lssg5EnkaD2OzTq8E-72" value="" style="endArrow=open;endFill=1;endSize=12;html=1;rounded=0;entryX=0.5;entryY=0;entryDx=0;entryDy=0;labelBackgroundColor=none;strokeColor=#736CA8;fontColor=default;" edge="1" parent="1" target="fq-Lssg5EnkaD2OzTq8E-21">
          <mxGeometry width="160" relative="1" as="geometry">
            <mxPoint x="90" y="400" as="sourcePoint" />
            <mxPoint x="250" y="400" as="targetPoint" />
            <Array as="points">
              <mxPoint x="90" y="380" />
              <mxPoint x="250" y="380" />
              <mxPoint x="415" y="380" />
            </Array>
          </mxGeometry>
        </mxCell>
        <mxCell id="fq-Lssg5EnkaD2OzTq8E-121" value="1" style="edgeLabel;html=1;align=center;verticalAlign=middle;resizable=0;points=[];strokeColor=#D0CEE2;fontColor=#1A1A1A;fillColor=#5D7F99;" vertex="1" connectable="0" parent="fq-Lssg5EnkaD2OzTq8E-72">
          <mxGeometry x="0.9449" y="-1" relative="1" as="geometry">
            <mxPoint x="11" as="offset" />
          </mxGeometry>
        </mxCell>
        <mxCell id="fq-Lssg5EnkaD2OzTq8E-74" value="" style="endArrow=open;endFill=1;endSize=12;html=1;rounded=0;exitX=1;exitY=0.5;exitDx=0;exitDy=0;entryX=0;entryY=0.5;entryDx=0;entryDy=0;labelBackgroundColor=none;strokeColor=#736CA8;fontColor=default;" edge="1" parent="1" source="fq-Lssg5EnkaD2OzTq8E-22" target="fq-Lssg5EnkaD2OzTq8E-20">
          <mxGeometry width="160" relative="1" as="geometry">
            <mxPoint x="150" y="480" as="sourcePoint" />
            <mxPoint x="310" y="480" as="targetPoint" />
          </mxGeometry>
        </mxCell>
        <mxCell id="fq-Lssg5EnkaD2OzTq8E-120" value="1" style="edgeLabel;html=1;align=center;verticalAlign=middle;resizable=0;points=[];strokeColor=#D0CEE2;fontColor=#1A1A1A;fillColor=#5D7F99;" vertex="1" connectable="0" parent="fq-Lssg5EnkaD2OzTq8E-74">
          <mxGeometry x="0.6225" y="1" relative="1" as="geometry">
            <mxPoint y="-14" as="offset" />
          </mxGeometry>
        </mxCell>
        <mxCell id="fq-Lssg5EnkaD2OzTq8E-76" value="" style="endArrow=open;endFill=1;endSize=12;html=1;rounded=0;exitX=0.5;exitY=0;exitDx=0;exitDy=0;entryX=0;entryY=0.5;entryDx=0;entryDy=0;labelBackgroundColor=none;strokeColor=#736CA8;fontColor=default;" edge="1" parent="1" source="fq-Lssg5EnkaD2OzTq8E-25" target="fq-Lssg5EnkaD2OzTq8E-25">
          <mxGeometry width="160" relative="1" as="geometry">
            <mxPoint x="575" y="380" as="sourcePoint" />
            <mxPoint x="500" y="430" as="targetPoint" />
            <Array as="points">
              <mxPoint x="575" y="380" />
              <mxPoint x="500" y="380" />
              <mxPoint x="500" y="425" />
            </Array>
          </mxGeometry>
        </mxCell>
        <mxCell id="fq-Lssg5EnkaD2OzTq8E-119" value="0..1" style="edgeLabel;html=1;align=center;verticalAlign=middle;resizable=0;points=[];strokeColor=#D0CEE2;fontColor=#1A1A1A;fillColor=#5D7F99;" vertex="1" connectable="0" parent="fq-Lssg5EnkaD2OzTq8E-76">
          <mxGeometry x="0.8827" y="-2" relative="1" as="geometry">
            <mxPoint y="-17" as="offset" />
          </mxGeometry>
        </mxCell>
        <mxCell id="fq-Lssg5EnkaD2OzTq8E-81" value="" style="endArrow=open;endFill=1;endSize=12;html=1;rounded=0;exitX=1;exitY=0.5;exitDx=0;exitDy=0;entryX=0;entryY=0.5;entryDx=0;entryDy=0;labelBackgroundColor=none;strokeColor=#736CA8;fontColor=default;" edge="1" parent="1" source="fq-Lssg5EnkaD2OzTq8E-25" target="fq-Lssg5EnkaD2OzTq8E-27">
          <mxGeometry width="160" relative="1" as="geometry">
            <mxPoint x="650" y="420" as="sourcePoint" />
            <mxPoint x="810" y="420" as="targetPoint" />
          </mxGeometry>
        </mxCell>
        <mxCell id="fq-Lssg5EnkaD2OzTq8E-82" value="0..*" style="edgeLabel;html=1;align=center;verticalAlign=middle;resizable=0;points=[];labelBackgroundColor=none;fontColor=#1A1A1A;" vertex="1" connectable="0" parent="fq-Lssg5EnkaD2OzTq8E-81">
          <mxGeometry x="0.44" y="-2" relative="1" as="geometry">
            <mxPoint x="4" y="-17" as="offset" />
          </mxGeometry>
        </mxCell>
        <mxCell id="fq-Lssg5EnkaD2OzTq8E-85" value="" style="endArrow=block;dashed=1;endFill=0;endSize=12;html=1;rounded=0;entryX=0.5;entryY=1;entryDx=0;entryDy=0;labelBackgroundColor=none;strokeColor=#736CA8;fontColor=default;" edge="1" parent="1" target="fq-Lssg5EnkaD2OzTq8E-37">
          <mxGeometry width="160" relative="1" as="geometry">
            <mxPoint x="90" y="40" as="sourcePoint" />
            <mxPoint x="830" y="20" as="targetPoint" />
            <Array as="points">
              <mxPoint x="90" y="20" />
              <mxPoint x="790" y="20" />
              <mxPoint x="790" y="110" />
              <mxPoint x="790" y="370" />
              <mxPoint x="95" y="370" />
            </Array>
          </mxGeometry>
        </mxCell>
        <mxCell id="fq-Lssg5EnkaD2OzTq8E-86" value="" style="endArrow=open;endFill=1;endSize=12;html=1;rounded=0;entryX=0;entryY=0.5;entryDx=0;entryDy=0;exitX=0;exitY=0.5;exitDx=0;exitDy=0;labelBackgroundColor=none;strokeColor=#736CA8;fontColor=default;" edge="1" parent="1" source="fq-Lssg5EnkaD2OzTq8E-32" target="fq-Lssg5EnkaD2OzTq8E-16">
          <mxGeometry width="160" relative="1" as="geometry">
            <mxPoint x="20" y="590" as="sourcePoint" />
            <mxPoint x="180" y="750" as="targetPoint" />
            <Array as="points">
              <mxPoint x="20" y="585" />
              <mxPoint x="20" y="450" />
              <mxPoint x="20" y="185" />
            </Array>
          </mxGeometry>
        </mxCell>
        <mxCell id="fq-Lssg5EnkaD2OzTq8E-139" value="1" style="edgeLabel;html=1;align=center;verticalAlign=middle;resizable=0;points=[];strokeColor=#D0CEE2;fontColor=#1A1A1A;fillColor=#5D7F99;" vertex="1" connectable="0" parent="fq-Lssg5EnkaD2OzTq8E-86">
          <mxGeometry x="0.9474" y="-1" relative="1" as="geometry">
            <mxPoint y="-16" as="offset" />
          </mxGeometry>
        </mxCell>
        <mxCell id="fq-Lssg5EnkaD2OzTq8E-91" value="" style="endArrow=none;html=1;edgeStyle=orthogonalEdgeStyle;rounded=0;entryX=0;entryY=0.5;entryDx=0;entryDy=0;labelBackgroundColor=none;strokeColor=#736CA8;fontColor=default;" edge="1" parent="1" target="fq-Lssg5EnkaD2OzTq8E-39">
          <mxGeometry relative="1" as="geometry">
            <mxPoint x="50" y="560" as="sourcePoint" />
            <mxPoint x="210" y="560" as="targetPoint" />
            <Array as="points">
              <mxPoint x="160" y="560" />
              <mxPoint x="160" y="505" />
            </Array>
          </mxGeometry>
        </mxCell>
        <mxCell id="fq-Lssg5EnkaD2OzTq8E-129" value="1" style="edgeLabel;html=1;align=center;verticalAlign=middle;resizable=0;points=[];strokeColor=#D0CEE2;fontColor=#1A1A1A;fillColor=#5D7F99;" vertex="1" connectable="0" parent="fq-Lssg5EnkaD2OzTq8E-91">
          <mxGeometry x="-0.9018" y="2" relative="1" as="geometry">
            <mxPoint x="110" y="-8" as="offset" />
          </mxGeometry>
        </mxCell>
        <mxCell id="fq-Lssg5EnkaD2OzTq8E-130" value="1" style="edgeLabel;html=1;align=center;verticalAlign=middle;resizable=0;points=[];strokeColor=#D0CEE2;fontColor=#1A1A1A;fillColor=#5D7F99;" vertex="1" connectable="0" parent="fq-Lssg5EnkaD2OzTq8E-91">
          <mxGeometry x="0.8348" y="1" relative="1" as="geometry">
            <mxPoint x="7" y="-14" as="offset" />
          </mxGeometry>
        </mxCell>
        <mxCell id="fq-Lssg5EnkaD2OzTq8E-96" value="" style="endArrow=none;html=1;edgeStyle=orthogonalEdgeStyle;rounded=0;entryX=0;entryY=0.5;entryDx=0;entryDy=0;labelBackgroundColor=none;strokeColor=#736CA8;fontColor=default;" edge="1" parent="1" target="fq-Lssg5EnkaD2OzTq8E-41">
          <mxGeometry relative="1" as="geometry">
            <mxPoint x="160" y="610" as="sourcePoint" />
            <mxPoint x="320" y="610" as="targetPoint" />
            <Array as="points">
              <mxPoint x="160" y="705" />
            </Array>
          </mxGeometry>
        </mxCell>
        <mxCell id="fq-Lssg5EnkaD2OzTq8E-131" value="1" style="edgeLabel;html=1;align=center;verticalAlign=middle;resizable=0;points=[];strokeColor=#D0CEE2;fontColor=#1A1A1A;fillColor=#5D7F99;" vertex="1" connectable="0" parent="fq-Lssg5EnkaD2OzTq8E-96">
          <mxGeometry x="0.8139" y="1" relative="1" as="geometry">
            <mxPoint x="3" y="-14" as="offset" />
          </mxGeometry>
        </mxCell>
        <mxCell id="fq-Lssg5EnkaD2OzTq8E-132" value="1" style="edgeLabel;html=1;align=center;verticalAlign=middle;resizable=0;points=[];strokeColor=#D0CEE2;fontColor=#1A1A1A;fillColor=#5D7F99;" vertex="1" connectable="0" parent="fq-Lssg5EnkaD2OzTq8E-96">
          <mxGeometry x="-0.8991" y="-1" relative="1" as="geometry">
            <mxPoint x="11" as="offset" />
          </mxGeometry>
        </mxCell>
        <mxCell id="fq-Lssg5EnkaD2OzTq8E-99" value="" style="endArrow=open;endFill=1;endSize=12;html=1;rounded=0;entryX=0.25;entryY=1;entryDx=0;entryDy=0;exitX=1;exitY=1;exitDx=0;exitDy=0;labelBackgroundColor=none;strokeColor=#736CA8;fontColor=default;" edge="1" parent="1" source="fq-Lssg5EnkaD2OzTq8E-42" target="fq-Lssg5EnkaD2OzTq8E-32">
          <mxGeometry width="160" relative="1" as="geometry">
            <mxPoint x="470" y="620" as="sourcePoint" />
            <mxPoint x="630" y="620" as="targetPoint" />
            <Array as="points">
              <mxPoint x="520" y="630" />
              <mxPoint x="520" y="880" />
              <mxPoint x="74" y="880" />
            </Array>
          </mxGeometry>
        </mxCell>
        <mxCell id="fq-Lssg5EnkaD2OzTq8E-127" value="1" style="edgeLabel;html=1;align=center;verticalAlign=middle;resizable=0;points=[];strokeColor=#D0CEE2;fontColor=#1A1A1A;fillColor=#5D7F99;" vertex="1" connectable="0" parent="fq-Lssg5EnkaD2OzTq8E-99">
          <mxGeometry x="0.9817" y="-2" relative="1" as="geometry">
            <mxPoint x="-16" y="1" as="offset" />
          </mxGeometry>
        </mxCell>
        <mxCell id="fq-Lssg5EnkaD2OzTq8E-100" value="" style="endArrow=open;endFill=1;endSize=12;html=1;rounded=0;entryX=0.5;entryY=1;entryDx=0;entryDy=0;labelBackgroundColor=none;strokeColor=#736CA8;fontColor=default;" edge="1" parent="1" target="fq-Lssg5EnkaD2OzTq8E-32">
          <mxGeometry width="160" relative="1" as="geometry">
            <mxPoint x="470" y="720" as="sourcePoint" />
            <mxPoint x="60" y="620" as="targetPoint" />
            <Array as="points">
              <mxPoint x="510" y="720" />
              <mxPoint x="510" y="870" />
              <mxPoint x="110" y="870" />
            </Array>
          </mxGeometry>
        </mxCell>
        <mxCell id="fq-Lssg5EnkaD2OzTq8E-126" value="1" style="edgeLabel;html=1;align=center;verticalAlign=middle;resizable=0;points=[];strokeColor=#D0CEE2;fontColor=#1A1A1A;fillColor=#5D7F99;" vertex="1" connectable="0" parent="fq-Lssg5EnkaD2OzTq8E-100">
          <mxGeometry x="0.9839" y="-1" relative="1" as="geometry">
            <mxPoint x="-9" y="3" as="offset" />
          </mxGeometry>
        </mxCell>
        <mxCell id="fq-Lssg5EnkaD2OzTq8E-101" value="" style="endArrow=open;endFill=1;endSize=12;html=1;rounded=0;entryX=0.75;entryY=1;entryDx=0;entryDy=0;labelBackgroundColor=none;strokeColor=#736CA8;fontColor=default;" edge="1" parent="1" target="fq-Lssg5EnkaD2OzTq8E-32">
          <mxGeometry width="160" relative="1" as="geometry">
            <mxPoint x="470" y="820" as="sourcePoint" />
            <mxPoint x="630" y="820" as="targetPoint" />
            <Array as="points">
              <mxPoint x="500" y="820" />
              <mxPoint x="500" y="860" />
              <mxPoint x="141" y="860" />
            </Array>
          </mxGeometry>
        </mxCell>
        <mxCell id="fq-Lssg5EnkaD2OzTq8E-125" value="1" style="edgeLabel;html=1;align=center;verticalAlign=middle;resizable=0;points=[];strokeColor=#D0CEE2;fontColor=#1A1A1A;fillColor=#5D7F99;" vertex="1" connectable="0" parent="fq-Lssg5EnkaD2OzTq8E-101">
          <mxGeometry x="0.9726" y="-1" relative="1" as="geometry">
            <mxPoint x="-12" y="1" as="offset" />
          </mxGeometry>
        </mxCell>
        <mxCell id="fq-Lssg5EnkaD2OzTq8E-102" value="" style="endArrow=open;endFill=1;endSize=12;html=1;rounded=0;entryX=0;entryY=0.5;entryDx=0;entryDy=0;labelBackgroundColor=none;strokeColor=#736CA8;fontColor=default;" edge="1" parent="1" target="fq-Lssg5EnkaD2OzTq8E-42">
          <mxGeometry width="160" relative="1" as="geometry">
            <mxPoint x="310" y="680" as="sourcePoint" />
            <mxPoint x="470" y="680" as="targetPoint" />
            <Array as="points">
              <mxPoint x="310" y="605" />
            </Array>
          </mxGeometry>
        </mxCell>
        <mxCell id="fq-Lssg5EnkaD2OzTq8E-122" value="1" style="edgeLabel;html=1;align=center;verticalAlign=middle;resizable=0;points=[];strokeColor=#D0CEE2;fontColor=#1A1A1A;fillColor=#5D7F99;" vertex="1" connectable="0" parent="fq-Lssg5EnkaD2OzTq8E-102">
          <mxGeometry x="0.799" y="-1" relative="1" as="geometry">
            <mxPoint x="3" y="-21" as="offset" />
          </mxGeometry>
        </mxCell>
        <mxCell id="fq-Lssg5EnkaD2OzTq8E-103" value="" style="endArrow=open;endFill=1;endSize=12;html=1;rounded=0;exitX=1;exitY=0.5;exitDx=0;exitDy=0;entryX=0;entryY=0.5;entryDx=0;entryDy=0;labelBackgroundColor=none;strokeColor=#736CA8;fontColor=default;" edge="1" parent="1" source="fq-Lssg5EnkaD2OzTq8E-41" target="fq-Lssg5EnkaD2OzTq8E-43">
          <mxGeometry width="160" relative="1" as="geometry">
            <mxPoint x="320" y="750" as="sourcePoint" />
            <mxPoint x="480" y="750" as="targetPoint" />
          </mxGeometry>
        </mxCell>
        <mxCell id="fq-Lssg5EnkaD2OzTq8E-123" value="1" style="edgeLabel;html=1;align=center;verticalAlign=middle;resizable=0;points=[];strokeColor=#D0CEE2;fontColor=#1A1A1A;fillColor=#5D7F99;" vertex="1" connectable="0" parent="fq-Lssg5EnkaD2OzTq8E-103">
          <mxGeometry x="0.6475" y="1" relative="1" as="geometry">
            <mxPoint x="-1" y="-14" as="offset" />
          </mxGeometry>
        </mxCell>
        <mxCell id="fq-Lssg5EnkaD2OzTq8E-104" value="" style="endArrow=open;endFill=1;endSize=12;html=1;rounded=0;entryX=0;entryY=0.5;entryDx=0;entryDy=0;labelBackgroundColor=none;strokeColor=#736CA8;fontColor=default;" edge="1" parent="1" target="fq-Lssg5EnkaD2OzTq8E-44">
          <mxGeometry width="160" relative="1" as="geometry">
            <mxPoint x="310" y="730" as="sourcePoint" />
            <mxPoint x="470" y="730" as="targetPoint" />
            <Array as="points">
              <mxPoint x="310" y="805" />
            </Array>
          </mxGeometry>
        </mxCell>
        <mxCell id="fq-Lssg5EnkaD2OzTq8E-124" value="1" style="edgeLabel;html=1;align=center;verticalAlign=middle;resizable=0;points=[];strokeColor=#D0CEE2;fontColor=#1A1A1A;fillColor=#5D7F99;" vertex="1" connectable="0" parent="fq-Lssg5EnkaD2OzTq8E-104">
          <mxGeometry x="0.859" y="-1" relative="1" as="geometry">
            <mxPoint x="-1" y="-16" as="offset" />
          </mxGeometry>
        </mxCell>
        <mxCell id="fq-Lssg5EnkaD2OzTq8E-105" value="" style="endArrow=open;endFill=1;endSize=12;html=1;rounded=0;entryX=0;entryY=0.5;entryDx=0;entryDy=0;labelBackgroundColor=none;strokeColor=#736CA8;fontColor=default;" edge="1" parent="1" source="fq-Lssg5EnkaD2OzTq8E-39" target="fq-Lssg5EnkaD2OzTq8E-38">
          <mxGeometry width="160" relative="1" as="geometry">
            <mxPoint x="310" y="505" as="sourcePoint" />
            <mxPoint x="470" y="505" as="targetPoint" />
          </mxGeometry>
        </mxCell>
        <mxCell id="fq-Lssg5EnkaD2OzTq8E-133" value="1" style="edgeLabel;html=1;align=center;verticalAlign=middle;resizable=0;points=[];strokeColor=#D0CEE2;fontColor=#1A1A1A;fillColor=#5D7F99;" vertex="1" connectable="0" parent="fq-Lssg5EnkaD2OzTq8E-105">
          <mxGeometry x="0.9233" y="1" relative="1" as="geometry">
            <mxPoint x="4" y="-14" as="offset" />
          </mxGeometry>
        </mxCell>
        <mxCell id="fq-Lssg5EnkaD2OzTq8E-107" value="" style="endArrow=open;endFill=1;endSize=12;html=1;rounded=0;exitX=0.5;exitY=0;exitDx=0;exitDy=0;entryX=0.5;entryY=1;entryDx=0;entryDy=0;labelBackgroundColor=none;strokeColor=#736CA8;fontColor=default;" edge="1" parent="1" source="fq-Lssg5EnkaD2OzTq8E-40" target="fq-Lssg5EnkaD2OzTq8E-38">
          <mxGeometry width="160" relative="1" as="geometry">
            <mxPoint x="700" y="610" as="sourcePoint" />
            <mxPoint x="860" y="610" as="targetPoint" />
          </mxGeometry>
        </mxCell>
        <mxCell id="fq-Lssg5EnkaD2OzTq8E-134" value="1" style="edgeLabel;html=1;align=center;verticalAlign=middle;resizable=0;points=[];strokeColor=#D0CEE2;fontColor=#1A1A1A;fillColor=#5D7F99;" vertex="1" connectable="0" parent="fq-Lssg5EnkaD2OzTq8E-107">
          <mxGeometry x="0.1906" y="-2" relative="1" as="geometry">
            <mxPoint x="8" y="-6" as="offset" />
          </mxGeometry>
        </mxCell>
        <mxCell id="fq-Lssg5EnkaD2OzTq8E-108" value="" style="endArrow=open;endFill=1;endSize=12;html=1;rounded=0;entryX=0;entryY=1;entryDx=0;entryDy=0;labelBackgroundColor=none;strokeColor=#736CA8;fontColor=default;" edge="1" parent="1" target="fq-Lssg5EnkaD2OzTq8E-32">
          <mxGeometry width="160" relative="1" as="geometry">
            <mxPoint x="40" y="910" as="sourcePoint" />
            <mxPoint x="200" y="910" as="targetPoint" />
          </mxGeometry>
        </mxCell>
        <mxCell id="fq-Lssg5EnkaD2OzTq8E-138" value="0..1" style="edgeLabel;html=1;align=center;verticalAlign=middle;resizable=0;points=[];strokeColor=#D0CEE2;fontColor=#1A1A1A;fillColor=#5D7F99;" vertex="1" connectable="0" parent="fq-Lssg5EnkaD2OzTq8E-108">
          <mxGeometry x="0.9348" relative="1" as="geometry">
            <mxPoint x="-20" as="offset" />
          </mxGeometry>
        </mxCell>
        <mxCell id="fq-Lssg5EnkaD2OzTq8E-109" value="" style="endArrow=block;dashed=1;endFill=0;endSize=12;html=1;rounded=0;exitX=0.5;exitY=0;exitDx=0;exitDy=0;entryX=0.5;entryY=1;entryDx=0;entryDy=0;labelBackgroundColor=none;strokeColor=#736CA8;fontColor=default;" edge="1" parent="1" source="fq-Lssg5EnkaD2OzTq8E-28" target="fq-Lssg5EnkaD2OzTq8E-36">
          <mxGeometry width="160" relative="1" as="geometry">
            <mxPoint x="600" y="840" as="sourcePoint" />
            <mxPoint x="760" y="840" as="targetPoint" />
          </mxGeometry>
        </mxCell>
        <mxCell id="fq-Lssg5EnkaD2OzTq8E-110" value="" style="endArrow=open;endFill=1;endSize=12;html=1;rounded=0;entryX=0.5;entryY=0;entryDx=0;entryDy=0;exitX=1;exitY=0;exitDx=0;exitDy=0;labelBackgroundColor=none;strokeColor=#736CA8;fontColor=default;" edge="1" parent="1" source="fq-Lssg5EnkaD2OzTq8E-42" target="fq-Lssg5EnkaD2OzTq8E-19">
          <mxGeometry width="160" relative="1" as="geometry">
            <mxPoint x="470" y="620" as="sourcePoint" />
            <mxPoint x="630" y="620" as="targetPoint" />
            <Array as="points">
              <mxPoint x="560" y="580" />
              <mxPoint x="640" y="580" />
              <mxPoint x="640" y="650" />
              <mxPoint x="810" y="650" />
              <mxPoint x="810" y="130" />
              <mxPoint x="495" y="130" />
            </Array>
          </mxGeometry>
        </mxCell>
        <mxCell id="fq-Lssg5EnkaD2OzTq8E-112" value="0..1" style="edgeLabel;html=1;align=center;verticalAlign=middle;resizable=0;points=[];labelBackgroundColor=none;fontColor=#1A1A1A;" vertex="1" connectable="0" parent="fq-Lssg5EnkaD2OzTq8E-110">
          <mxGeometry x="0.9867" y="-1" relative="1" as="geometry">
            <mxPoint x="26" as="offset" />
          </mxGeometry>
        </mxCell>
        <mxCell id="fq-Lssg5EnkaD2OzTq8E-111" value="" style="endArrow=open;endFill=1;endSize=12;html=1;rounded=0;entryX=0.75;entryY=0;entryDx=0;entryDy=0;labelBackgroundColor=none;strokeColor=#736CA8;fontColor=default;" edge="1" parent="1" target="fq-Lssg5EnkaD2OzTq8E-13">
          <mxGeometry width="160" relative="1" as="geometry">
            <mxPoint x="470" y="610" as="sourcePoint" />
            <mxPoint x="630" y="610" as="targetPoint" />
            <Array as="points">
              <mxPoint x="560" y="610" />
              <mxPoint x="560" y="680" />
              <mxPoint x="830" y="680" />
              <mxPoint x="830" y="100" />
              <mxPoint x="320" y="100" />
            </Array>
          </mxGeometry>
        </mxCell>
        <mxCell id="fq-Lssg5EnkaD2OzTq8E-135" value="1" style="edgeLabel;html=1;align=center;verticalAlign=middle;resizable=0;points=[];strokeColor=#D0CEE2;fontColor=#1A1A1A;fillColor=#5D7F99;" vertex="1" connectable="0" parent="fq-Lssg5EnkaD2OzTq8E-111">
          <mxGeometry x="0.9787" y="-2" relative="1" as="geometry">
            <mxPoint x="20" y="6" as="offset" />
          </mxGeometry>
        </mxCell>
        <mxCell id="fq-Lssg5EnkaD2OzTq8E-113" value="" style="endArrow=open;endFill=1;endSize=12;html=1;rounded=0;strokeColor=#736CA8;fontColor=#1A1A1A;exitX=1;exitY=0.5;exitDx=0;exitDy=0;" edge="1" parent="1" source="fq-Lssg5EnkaD2OzTq8E-16">
          <mxGeometry width="160" relative="1" as="geometry">
            <mxPoint x="160" y="200" as="sourcePoint" />
            <mxPoint x="240" y="185" as="targetPoint" />
          </mxGeometry>
        </mxCell>
        <mxCell id="fq-Lssg5EnkaD2OzTq8E-116" value="0..*" style="edgeLabel;html=1;align=center;verticalAlign=middle;resizable=0;points=[];strokeColor=#D0CEE2;fontColor=#1A1A1A;fillColor=#5D7F99;" vertex="1" connectable="0" parent="fq-Lssg5EnkaD2OzTq8E-113">
          <mxGeometry x="0.7073" y="2" relative="1" as="geometry">
            <mxPoint y="-13" as="offset" />
          </mxGeometry>
        </mxCell>
        <mxCell id="fq-Lssg5EnkaD2OzTq8E-114" value="" style="endArrow=open;endFill=1;endSize=12;html=1;rounded=0;strokeColor=#736CA8;fontColor=#1A1A1A;exitX=1;exitY=0.5;exitDx=0;exitDy=0;entryX=0;entryY=0.5;entryDx=0;entryDy=0;" edge="1" parent="1" source="fq-Lssg5EnkaD2OzTq8E-13" target="fq-Lssg5EnkaD2OzTq8E-19">
          <mxGeometry width="160" relative="1" as="geometry">
            <mxPoint x="370" y="220" as="sourcePoint" />
            <mxPoint x="530" y="220" as="targetPoint" />
          </mxGeometry>
        </mxCell>
        <mxCell id="fq-Lssg5EnkaD2OzTq8E-136" value="0..*" style="edgeLabel;html=1;align=center;verticalAlign=middle;resizable=0;points=[];strokeColor=#D0CEE2;fontColor=#1A1A1A;fillColor=#5D7F99;" vertex="1" connectable="0" parent="fq-Lssg5EnkaD2OzTq8E-114">
          <mxGeometry x="0.7237" relative="1" as="geometry">
            <mxPoint x="3" y="-15" as="offset" />
          </mxGeometry>
        </mxCell>
        <mxCell id="fq-Lssg5EnkaD2OzTq8E-115" value="" style="endArrow=open;endFill=1;endSize=12;html=1;rounded=0;strokeColor=#736CA8;fontColor=#1A1A1A;exitX=1;exitY=0.5;exitDx=0;exitDy=0;entryX=0;entryY=0.5;entryDx=0;entryDy=0;" edge="1" parent="1" source="fq-Lssg5EnkaD2OzTq8E-19" target="fq-Lssg5EnkaD2OzTq8E-18">
          <mxGeometry width="160" relative="1" as="geometry">
            <mxPoint x="560" y="240" as="sourcePoint" />
            <mxPoint x="720" y="240" as="targetPoint" />
          </mxGeometry>
        </mxCell>
        <mxCell id="fq-Lssg5EnkaD2OzTq8E-137" value="0..*" style="edgeLabel;html=1;align=center;verticalAlign=middle;resizable=0;points=[];strokeColor=#D0CEE2;fontColor=#1A1A1A;fillColor=#5D7F99;" vertex="1" connectable="0" parent="fq-Lssg5EnkaD2OzTq8E-115">
          <mxGeometry x="0.6271" y="2" relative="1" as="geometry">
            <mxPoint x="7" y="-13" as="offset" />
          </mxGeometry>
        </mxCell>
        <mxCell id="fq-Lssg5EnkaD2OzTq8E-117" value="" style="endArrow=open;endFill=1;endSize=12;html=1;rounded=0;strokeColor=#736CA8;fontColor=#1A1A1A;entryX=0.25;entryY=0;entryDx=0;entryDy=0;exitX=0.25;exitY=1;exitDx=0;exitDy=0;" edge="1" parent="1" source="fq-Lssg5EnkaD2OzTq8E-12" target="fq-Lssg5EnkaD2OzTq8E-13">
          <mxGeometry width="160" relative="1" as="geometry">
            <mxPoint x="260" y="90" as="sourcePoint" />
            <mxPoint x="420" y="90" as="targetPoint" />
          </mxGeometry>
        </mxCell>
        <mxCell id="fq-Lssg5EnkaD2OzTq8E-118" value="0..7" style="edgeLabel;html=1;align=center;verticalAlign=middle;resizable=0;points=[];strokeColor=#D0CEE2;fontColor=#1A1A1A;fillColor=#5D7F99;" vertex="1" connectable="0" parent="fq-Lssg5EnkaD2OzTq8E-117">
          <mxGeometry x="0.7076" y="-1" relative="1" as="geometry">
            <mxPoint x="-16" as="offset" />
          </mxGeometry>
        </mxCell>
        <mxCell id="fq-Lssg5EnkaD2OzTq8E-140" value="" style="endArrow=open;endFill=1;endSize=12;html=1;rounded=0;strokeColor=#736CA8;fontColor=#1A1A1A;entryX=0.107;entryY=1;entryDx=0;entryDy=0;entryPerimeter=0;" edge="1" parent="1" target="fq-Lssg5EnkaD2OzTq8E-22">
          <mxGeometry width="160" relative="1" as="geometry">
            <mxPoint x="52" y="560" as="sourcePoint" />
            <mxPoint x="210" y="560" as="targetPoint" />
          </mxGeometry>
        </mxCell>
        <mxCell id="fq-Lssg5EnkaD2OzTq8E-141" value="1" style="edgeLabel;html=1;align=center;verticalAlign=middle;resizable=0;points=[];strokeColor=#D0CEE2;fontColor=#1A1A1A;fillColor=#5D7F99;" vertex="1" connectable="0" parent="fq-Lssg5EnkaD2OzTq8E-140">
          <mxGeometry x="0.8248" y="-3" relative="1" as="geometry">
            <mxPoint x="5" as="offset" />
          </mxGeometry>
        </mxCell>
      </root>
    </mxGraphModel>
  </diagram>
</mxfile>
